<?xml version="1.0" encoding="iso-8859-1"?>
<!-- Generator: Adobe Illustrator 16.0.0, SVG Export Plug-In . SVG Version: 6.00 Build 0)  -->
<!DOCTYPE svg PUBLIC "-//W3C//DTD SVG 1.1//EN" "http://www.w3.org/Graphics/SVG/1.1/DTD/svg11.dtd">
<svg version="1.1" id="Capa_1" xmlns="http://www.w3.org/2000/svg" xmlns:xlink="http://www.w3.org/1999/xlink" x="0px" y="0px"
	 width="49.771px" height="49.771px" viewBox="0 0 49.771 49.771" style="enable-background:new 0 0 49.771 49.771;"
	 xml:space="preserve">
<g>
	<path d="M24.884,0c-6.65,0-12.041,5.392-12.041,12.042c0,4.766,2.775,8.872,6.791,10.824v2.821h2.167v0.043l-2.188,2.4l2.188,1.641
		v0.572l-2.292,2.477l2.292,1.736v0.474l-2.292,1.978l2.292,1.916v0.791l-2.083,2.146l2.083,2.812v1.229l-2.292,1l2.292,2.869h1.188
		h0.896V25.688h1.209v24.084h3.625V25.688h1.416v-2.821c4.017-1.952,6.793-6.059,6.793-10.824C36.927,5.392,31.535,0,24.884,0z
		 M24.884,9.667c-1.795,0-3.25-1.455-3.25-3.25s1.455-3.25,3.25-3.25s3.25,1.455,3.25,3.25S26.679,9.667,24.884,9.667z"/>
</g>
<g>
</g>
<g>
</g>
<g>
</g>
<g>
</g>
<g>
</g>
<g>
</g>
<g>
</g>
<g>
</g>
<g>
</g>
<g>
</g>
<g>
</g>
<g>
</g>
<g>
</g>
<g>
</g>
<g>
</g>
</svg>
